<!--?xml version="1.0" encoding="utf-8"?-->
<!-- Svg Vector Icons : http://www.onlinewebfonts.com/icon -->

<svg version="1.1" xmlns="http://www.w3.org/2000/svg" xmlns:xlink="http://www.w3.org/1999/xlink" x="0px" y="0px" viewBox="0 0 256 256" enable-background="new 0 0 256 256" xml:space="preserve">
<metadata> Svg Vector Icons : http://www.onlinewebfonts.com/icon </metadata>
<g><g><g><path fill="#ffffff" data-title="Layer 0" xs="0" d="M41.7,10.2c-14.6,1.9-26.8,13-30.8,27.9C10,41.2,10,44.8,10,127.9c0,83.1,0,86.7,0.9,89.8c3.1,11.7,11.3,21.2,21.9,25.4c7.1,2.9,4.2,2.7,51.5,2.9l43.3,0.1v-45.8v-45.7h-15.5H96.6l0.1-17.9l0.1-17.9l15.3-0.1l15.3-0.1l0.2-17.5c0.2-18.8,0.4-20.3,3-28.1c2.5-7.4,8-15,13.9-19.3c7.8-5.7,18.2-8.5,31-8.5c6.3,0,19.7,0.7,23.6,1.2l2.1,0.3l-0.1,15.9l-0.1,15.9h-9.1c-15.3,0-20,1-23.6,4.9c-3.1,3.4-3.4,4.9-3.6,21.1l-0.2,14.2h17.5c9.7,0,17.6,0.1,17.8,0.2c0.1,0.1-0.6,6.3-1.5,13.7c-1,7.4-2,15.5-2.3,17.8l-0.5,4.3h-15.4h-15.4v45.8v45.7l25.8-0.2c23-0.1,26-0.2,28.5-1c13.5-4,23.1-14,26.6-27.8c0.5-1.8,0.6-19.6,0.6-89.4V40.8l-1.3-4.1c-4.2-13.3-13.3-22.2-26.6-26c-2.9-0.8-6.7-0.9-88.2-0.9C83,9.8,43.3,9.9,41.7,10.2z"/></g></g></g>
</svg>