<!--?xml version="1.0" encoding="utf-8"?-->
<!-- Svg Vector Icons : http://www.onlinewebfonts.com/icon -->

<svg version="1.1" xmlns="http://www.w3.org/2000/svg" xmlns:xlink="http://www.w3.org/1999/xlink" x="0px" y="0px" viewBox="0 0 256 256" enable-background="new 0 0 256 256" xml:space="preserve">
<metadata> Svg Vector Icons : http://www.onlinewebfonts.com/icon </metadata>
<g><g><g><path fill="#ffffff" data-title="Layer 0" xs="0" d="M78.7,40.6c-23.4,0.8-37.8,2-43,3.5c-11.8,3.5-19.1,13-22.2,28.9c-4,20.2-4.6,75.4-1.2,103.3c2.2,17.7,8.1,28.6,18.2,33.5c9.7,4.8,32.3,6.3,97.1,6.3c43.9,0,75.6-0.9,87.3-2.7c17-2.7,26.1-14.3,28.9-37.1c3.4-27.9,2.8-83.1-1.2-103.3c-3.1-15.8-10-25-21.8-28.8C209.7,40.6,135,38.7,78.7,40.6z M136.8,106.7c19.3,11.5,35,21.2,35,21.5c0,0.3-15.7,10-35,21.5c-19.3,11.6-35.8,21.5-36.8,22.2l-1.8,1.1v-44.8V83.4l1.8,1.1C101,85.1,117.5,95.1,136.8,106.7z"/></g></g></g>
</svg>