<svg width="24" height="24" viewBox="0 0 24 24" fill="none" xmlns="http://www.w3.org/2000/svg">
<path fill-rule="evenodd" clip-rule="evenodd" d="M12 5.5C12.6069 4.75082 13.3671 4.14014 14.2295 3.70895C15.0919 3.27776 16.0365 3.03603 17 3C20.5 3 23 5.9 23 9.5C22.987 10.3461 22.8032 11.1809 22.4595 11.9542C22.1158 12.7275 21.6194 13.4234 21 14L12 22.5L3.00001 14C2.3553 13.4439 1.84163 12.7521 1.49584 11.9741C1.15006 11.1961 0.980736 10.3512 1.00001 9.5C1.00001 5.9 3.50001 3 7.00001 3C7.95899 3.05782 8.89634 3.30912 9.75563 3.73877C10.6149 4.16841 11.3784 4.76752 12 5.5ZM12 12.2L15.7 8.7L17.7 10.7L12 16.2L6.30001 10.7L8.30001 8.7L12 12.2Z" fill="black"/>
</svg>
