<!--?xml version="1.0" encoding="utf-8"?-->
<!-- Svg Vector Icons : http://www.onlinewebfonts.com/icon -->

<svg version="1.1" xmlns="http://www.w3.org/2000/svg" xmlns:xlink="http://www.w3.org/1999/xlink" x="0px" y="0px" viewBox="0 0 256 256" enable-background="new 0 0 256 256" xml:space="preserve">
<metadata> Svg Vector Icons : http://www.onlinewebfonts.com/icon </metadata>
<g><g><g><path fill="#ffffff" data-title="Layer 0" xs="0" d="M49.5,10.5C39,12.3,30.6,16.7,23.1,24.4C16.8,31,12.7,38.6,10.8,47.3C10,50.9,10,55.4,10,128c0,72.7,0,77.1,0.8,80.8c3.2,15,14.3,28.2,28.6,33.9c8.6,3.5,2.7,3.2,88.6,3.2c72.7,0,77.1,0,80.8-0.8c15-3.2,28.2-14.3,33.9-28.6c3.5-8.6,3.2-2.7,3.2-88.6c0-72.6,0-77.1-0.8-80.8c-1.8-8.6-6-16.3-12.3-22.8c-4.7-4.9-10.1-8.6-15.9-11c-8.9-3.6-1.9-3.4-87.6-3.5C68.8,9.9,52.2,10,49.5,10.5z M207.7,20.3c9.6,2.6,17.4,8,22.6,15.9c2.6,3.9,4.2,7.4,5.4,12.3l1,4V128v75.5l-1,4c-1.8,7.3-5.1,13.1-10.2,18.1c-5,5-10.9,8.3-18.1,10.2l-4,1H128H52.5l-4-1c-7.3-1.8-13.1-5.1-18.1-10.2c-5-5-8.3-10.9-10.2-18.1l-1-4V128V52.5l1-4c1.8-7.3,5.1-13.1,10.2-18.1c6.3-6.4,14.1-10,23.2-10.9c1.9-0.2,36.5-0.3,76.9-0.3l73.4,0.1L207.7,20.3z"/><path fill="#ffffff" data-title="Layer 1" xs="1" d="M197.6,34.1c-1.5,0.5-3,1.4-4.5,3c-3.3,3.3-3.7,5.3-3.6,16.5c0.1,10.3,0.5,11.3,4,14.5c3.2,3,4.7,3.2,15.6,3c10.7-0.1,11.8-0.4,14.8-3.4c3-3.1,3.2-3.9,3.2-15.5c0-9.8,0-10.5-1-12.3c-1.4-2.7-4.3-5.1-7.1-5.9C215.6,33.1,200.8,33.1,197.6,34.1z M217.2,43.8c0.5,0.6,0.7,2.7,0.8,7.9c0.2,7.7-0.2,9.5-1.9,10c-0.6,0.1-4.2,0.3-7.9,0.3c-9.7,0-9,0.7-9-9.7c0-5.7,0.2-8.4,0.6-8.7c0.4-0.4,3-0.6,8.7-0.6C215.4,43.1,216.6,43.2,217.2,43.8z"/><path fill="#ffffff" data-title="Layer 2" xs="2" d="M124.8,57.2c-17.3,0.7-34.3,8.2-46.5,20.4L75,81l-21.5,0H32l-1.5,1.3l-1.5,1.3l-0.1,58.5c-0.1,65.4-0.3,62,3.2,69c3.7,7.7,11.7,13.8,20,15.6c2.8,0.6,13.9,0.7,76,0.7c62.1,0,73.2-0.1,76-0.7c8.3-1.8,16.3-7.9,20-15.6c3.4-6.9,3.3-3.6,3.3-68.1c0-36.2-0.2-58.2-0.5-58.9c-0.2-0.6-0.7-1.5-1.2-2c-0.7-0.9-1.3-0.9-22.7-1.1l-22-0.1l-3.3-3.2C163.9,63.8,144.5,56.4,124.8,57.2z M136.8,67.3c20.5,3.1,37.8,15.9,46.6,34.5c11.2,23.4,6.4,51.1-12.1,69.5c-24.1,24.1-62.6,24.1-86.6,0c-18.5-18.4-23.3-46.1-12.1-69.5C84.2,77.5,110.5,63.3,136.8,67.3z M65.4,94.9c-5.7,10.9-8.1,20.8-8.1,33.2c0,19.3,7.1,36.5,20.6,50.1c13.6,13.6,30.8,20.6,50.1,20.6c19.3,0,36.5-7.1,50.1-20.6c13.6-13.6,20.6-30.8,20.6-50.1c0-12.4-2.4-22.3-8.1-33.2l-2.5-4.7h15h15v53.4c0,29.4-0.2,54.9-0.4,56.6c-1.2,9.1-8.5,16.3-17.5,17.5c-4.1,0.5-140.2,0.5-144.3,0c-9.1-1.2-16.3-8.5-17.5-17.5c-0.2-1.7-0.4-27.2-0.4-56.6V90.2h15h15L65.4,94.9z"/><path fill="#ffffff" data-title="Layer 3" xs="3" d="M122.9,76.4c-28.4,2.7-49.3,28-46.6,56.4c1.1,11,5.2,20.9,12.3,29.1c10.9,12.7,27.4,19.4,44.1,17.8c13.7-1.3,25.9-7.6,34.7-17.8c9.1-10.7,13.6-24.6,12.3-38.6c-0.6-5.6-1.3-8.8-3.4-14.4c-5.9-15.3-19.6-27.2-36-31.4c-2.3-0.6-12.4-1.8-13.2-1.6C126.9,75.9,125.1,76.1,122.9,76.4z M138.9,86.9c14.5,3.9,26.4,15.9,30.3,30.5c1.5,5.6,1.5,15.6,0,21.2c-4,14.7-15.8,26.6-30.6,30.6c-5.6,1.5-15.6,1.5-21.2,0c-14.7-4-26.6-15.8-30.6-30.6c-1.5-5.6-1.5-15.6,0-21.2c4.3-15.8,17-27.8,33.3-31.2C124.5,85.3,134.1,85.6,138.9,86.9z"/></g></g></g>
</svg>