<!--?xml version="1.0" encoding="utf-8"?-->
<!-- Svg Vector Icons : http://www.onlinewebfonts.com/icon -->

<svg version="1.1" xmlns="http://www.w3.org/2000/svg" xmlns:xlink="http://www.w3.org/1999/xlink" x="0px" y="0px" viewBox="0 0 256 256" enable-background="new 0 0 256 256" xml:space="preserve">
<metadata> Svg Vector Icons : http://www.onlinewebfonts.com/icon </metadata>
<g><g><path fill="#ffffff" data-title="Layer 0" xs="0" d="M246,128L246,128c0-64.3-51.6-116.6-115.6-117.9c-0.4,0-0.7,0-1.1,0c-0.1,0-0.2,0-0.3,0c-0.3,0-0.7,0-1,0C62.9,10,10,62.9,10,128c0,65.1,52.9,118,118,118c0.3,0,0.6,0,0.8,0c0.2,0,0.3,0,0.5,0c0.6,0,1.2,0,1.7-0.1C194.7,244.3,246,192,246,128L246,128L246,128L246,128z M191.5,124.1c-0.2-15-1.9-29.1-4.7-42.1c28.7,9,48.4,24.3,51,42.1H191.5z M183.6,124.1h-50.3V73.7c16.1,0.3,31.3,2.4,44.8,5.8C181.4,93,183.4,108.1,183.6,124.1z M133.3,65.8V18.2c18,2.6,33.6,23,42.5,52.6C162.7,67.9,148.4,66.1,133.3,65.8z M125.4,18.2v47.6c-15.1,0.2-29.3,1.8-42.4,4.7C92,41.1,107.5,20.8,125.4,18.2z M125.4,73.7V124H75.1c0.3-16.1,2.3-31.3,5.6-44.9C94.3,75.9,109.4,73.9,125.4,73.7z M67.2,124.1H19.6c2.6-18,22.9-33.7,52.4-42.6C69.1,94.6,67.5,108.9,67.2,124.1z M67.2,131.9c0.2,15.1,1.9,29.5,4.8,42.6c-29.5-8.9-49.8-24.5-52.4-42.6H67.2z M75.1,131.9h50.3v50.4c-16-0.2-31.2-2.2-44.7-5.5C77.3,163.2,75.4,148,75.1,131.9z M125.4,190.2v47.6c-17.9-2.6-33.4-22.9-42.4-52.3C96.1,188.3,110.3,190,125.4,190.2z M133.3,237.8v-47.6c15.1-0.3,29.5-2,42.5-5C166.9,214.8,151.3,235.2,133.3,237.8z M133.3,182.3v-50.4h50.3c-0.3,15.9-2.2,31-5.5,44.5C164.6,179.9,149.4,182,133.3,182.3z M191.5,131.9h46.3c-2.6,17.7-22.3,33.1-51,42.1C189.6,161.1,191.3,146.9,191.5,131.9z M234.8,101c-10.6-12-28.2-21.7-50.1-27.9c-6.1-22.4-15.8-40.4-27.8-51.3C195,32.1,225,62.5,234.8,101z M103,20.8c-12.4,10.8-22.5,29-28.8,51.9c-24,6.5-42.9,17.3-53.5,30.5C30.1,62.4,62.2,30.3,103,20.8z M20.7,152.8c10.6,13.3,29.5,24,53.5,30.5c6.3,22.9,16.4,41.1,28.8,51.9C62.2,225.7,30.2,193.5,20.7,152.8z M156.8,234.3c12-11,21.7-28.9,27.8-51.3c21.9-6.2,39.5-15.9,50.1-27.9C225,193.5,195,223.9,156.8,234.3z"/></g></g>
</svg>