<!--?xml version="1.0" encoding="utf-8"?-->
<!-- Svg Vector Icons : http://www.onlinewebfonts.com/icon -->

<svg version="1.1" xmlns="http://www.w3.org/2000/svg" xmlns:xlink="http://www.w3.org/1999/xlink" x="0px" y="0px" viewBox="0 0 256 256" enable-background="new 0 0 256 256" xml:space="preserve">
<metadata> Svg Vector Icons : http://www.onlinewebfonts.com/icon </metadata>
<g><g><g><path fill="#ffffff" data-title="Layer 0" xs="0" d="M31.7,10.3C22.1,11.6,13.9,18.8,11,28l-1,3.2V128v96.8l1,3.2c2.5,7.9,9.1,14.5,17,17l3.2,1H128h96.8l3.2-1c7.9-2.5,14.5-9.1,17-17l1-3.2V128V31.3l-1-3.2c-2.4-7.8-8.9-14.3-16.7-17l-3-1l-95.6,0C77,9.9,33,10.1,31.7,10.3z M81.7,59.2c6,3,9.5,8.6,9.5,15.5c0,5.3-1.3,8.4-4.9,12.1C81.2,91.8,75,93,68,90.3c-4.3-1.7-7-4.2-9-8.4c-1.3-2.7-1.4-3.6-1.4-7.3c0-3.6,0.1-4.5,1.3-7c1.4-3,4.9-6.8,7.6-8.2C71.3,57,77,56.9,81.7,59.2z M175.8,103.5c13,3.5,19.2,11.4,22.1,28.6c0.6,3.7,0.7,9,0.7,35.2v30.9H184h-14.7l-0.1-26.2c0-14.5-0.3-27.8-0.6-29.8c-1.4-10.4-6-14.6-15.6-14c-6.8,0.4-10.6,2.5-13.1,7.1c-2.6,4.9-2.7,5.9-3.1,35c-0.2,14.7-0.4,27.2-0.4,27.6c0,0.8-1.1,0.8-14.3,0.8h-14.3l-0.3-6.6c-0.4-7.3-0.1-87,0.2-87.3c0.1-0.1,6.4-0.3,14-0.4l13.7-0.1v6.6c0,4.1,0.2,6.6,0.5,6.6c0.3,0,0.5-0.3,0.5-0.6c0-0.7,4.8-6.3,6.7-7.9c3.6-2.9,9.2-5.4,14.3-6.3C161.3,101.9,171.6,102.4,175.8,103.5z M82.6,104.8l6.6,0.3v44.7c0,24.6-0.1,45.6-0.3,46.8l-0.3,2.1H74.4H60.1v-47.1v-47.1h8C72.4,104.5,79,104.6,82.6,104.8z"/></g></g></g>
</svg>