<!--?xml version="1.0" encoding="utf-8"?-->
<!-- Svg Vector Icons : http://www.onlinewebfonts.com/icon -->

<svg version="1.1" xmlns="http://www.w3.org/2000/svg" xmlns:xlink="http://www.w3.org/1999/xlink" x="0px" y="0px" viewBox="0 0 256 256" enable-background="new 0 0 256 256" xml:space="preserve">
<metadata> Svg Vector Icons : http://www.onlinewebfonts.com/icon </metadata>
<g><g><g><path fill="#ffffff" data-title="Layer 0" xs="0" d="M118.7,10.5c-10.3,1.1-20.5,4.1-30,8.9c-17.8,9-30.7,22-39.7,39.7c-13.6,27-12.3,59.7,3.5,85.3c4.2,6.7,70.3,99.7,71.7,100.6c1.8,1.3,6.2,1.3,8,0c1.4-1,68.7-95.7,72.3-101.7c5.4-8.9,9-19.1,11.2-30.9c1.1-6.1,1.1-21.5,0-27.7c-1.8-10.2-3.9-16.5-8.4-25.6c-6.7-13.6-15.6-24-28.4-33.1c-5.4-3.9-16.6-9.5-23-11.6C144.2,10.6,130.8,9.2,118.7,10.5z M134.3,69.7c10.9,2.3,20.4,11.7,22.6,22.6c4.3,20.9-14.1,39.4-35.1,35.1c-8.3-1.7-16.3-7.9-20-15.6c-5.8-11.7-3.7-24.9,5.5-34C114.5,70.6,124.3,67.6,134.3,69.7z"/></g></g></g>
</svg>