<!--?xml version="1.0" encoding="utf-8"?-->
<!-- Svg Vector Icons : http://www.onlinewebfonts.com/icon -->

<svg version="1.1" xmlns="http://www.w3.org/2000/svg" xmlns:xlink="http://www.w3.org/1999/xlink" x="0px" y="0px" viewBox="0 0 256 256" enable-background="new 0 0 256 256" xml:space="preserve">
<metadata> Svg Vector Icons : http://www.onlinewebfonts.com/icon </metadata>
<g><g><g><path fill="#ffffff" data-title="Layer 0" xs="0" d="M162.1,31.6c-3.3,0.9-8.4,2.8-11.2,4.3c-6.4,3.4-15.1,11.6-18.7,17.6c-5.7,9.5-8.6,23.1-7,32.8l0.7,4.4h-3.1c-5.8,0-22.3-3.2-31.8-6.3C68.4,77.1,49.6,65.3,32,47.1l-7.2-7.4L23.2,43c-3.1,6.1-4.7,12.9-4.7,20.7C18.4,78.1,22.9,89.1,33,99.2c5.9,6,6.2,6.3,3.8,6c-6.7-1.2-11.2-2.3-14.8-4.1l-4-1.8v3.4c0,5.1,2.1,12.6,5.6,19.6c5.2,10.6,17.1,20.9,28.4,24.2c1.9,0.6,3.5,1.3,3.5,1.7c0,1-10.5,1.8-15.9,1.2l-4.9-0.6l2.1,4.7c1.2,2.7,2.4,5.2,2.7,5.7c7.5,10.3,12.6,15,20.6,19.1c4.7,2.4,13.1,4.7,16.9,4.7c1.4,0,2.6,0.3,2.6,0.7c0,1-9.6,7.1-17.1,10.8c-13.9,6.9-30.5,10.6-45.3,10c-10.2-0.5-10.2-0.5,3.2,6.3c27.8,14.2,60.3,18.6,92.2,12.1c28.6-5.7,56-22,74.7-44.3c20.9-25,32.4-54,34.5-87.6c0.7-10.6,1-12.6,2.3-13.7c0.8-0.7,3.7-2.9,6.3-5c4.5-3.5,15.4-16.1,15.4-17.7c0-0.4-0.7-0.5-1.4-0.2c-3.5,1.5-17,5.3-20.7,5.9l-4.1,0.6l4.3-3.5c5.3-4.2,10.4-10.5,13.6-16.9c3.2-6.2,3.1-7.1-0.7-4.8c-4.6,2.7-15.7,7.2-21.6,8.7l-5.2,1.3l-5.2-4.2C192.3,31.3,177,27.7,162.1,31.6z"/></g></g></g>
</svg>